<?xml version="1.0" encoding="UTF-8"?>
<!DOCTYPE svg PUBLIC "-//W3C//DTD SVG 1.1//EN" "http://www.w3.org/Graphics/SVG/1.1/DTD/svg11.dtd">
<svg version="1.1" xmlns="http://www.w3.org/2000/svg" xmlns:xlink="http://www.w3.org/1999/xlink" x="0" y="0" width="30" height="30" viewBox="0, 0, 30, 30">
  <g id="Layer_1">
    <path d="M15.34,12.404 L13.769,12.404 L13.769,14.968 L15.34,14.968 L15.34,22.5 L18.361,22.5 L18.361,14.936 L20.468,14.936 L20.692,12.404 L18.361,12.404 C18.361,12.404 18.361,11.458 18.361,10.962 C18.361,10.365 18.481,10.128 19.058,10.128 C19.522,10.128 20.692,10.128 20.692,10.128 L20.692,7.5 C20.692,7.5 18.969,7.5 18.601,7.5 C16.353,7.5 15.34,8.49 15.34,10.385 C15.34,12.035 15.34,12.404 15.34,12.404 z" fill="#000000" id="facebook-icon"/>
  </g>
</svg>
