<?xml version="1.0" encoding="UTF-8"?>
<!DOCTYPE svg PUBLIC "-//W3C//DTD SVG 1.1//EN" "http://www.w3.org/Graphics/SVG/1.1/DTD/svg11.dtd">
<svg version="1.1" xmlns="http://www.w3.org/2000/svg" xmlns:xlink="http://www.w3.org/1999/xlink" x="0" y="0" width="30" height="30" viewBox="0, 0, 30, 30">
  <g id="Layer_1">
    <path d="M23.477,9.657 C22.843,9.938 22.162,10.128 21.447,10.214 C22.176,9.776 22.737,9.084 23.001,8.258 C22.318,8.663 21.561,8.958 20.756,9.116 C20.112,8.429 19.193,8 18.177,8 C15.895,8 14.218,10.129 14.734,12.34 C11.797,12.192 9.192,10.785 7.449,8.647 C6.523,10.235 6.969,12.314 8.543,13.366 C7.964,13.347 7.418,13.188 6.942,12.923 C6.904,14.561 8.077,16.092 9.777,16.434 C9.279,16.569 8.735,16.6 8.181,16.494 C8.63,17.898 9.936,18.92 11.482,18.948 C9.996,20.113 8.125,20.633 6.25,20.412 C7.814,21.415 9.672,22 11.668,22 C18.229,22 21.937,16.458 21.713,11.487 C22.404,10.988 23.003,10.366 23.477,9.657 z" fill="#000000" id="twitter-icon"/>
  </g>
</svg>
