<?xml version="1.0" encoding="UTF-8"?>
<!DOCTYPE svg PUBLIC "-//W3C//DTD SVG 1.1//EN" "http://www.w3.org/Graphics/SVG/1.1/DTD/svg11.dtd">
<svg version="1.1" xmlns="http://www.w3.org/2000/svg" xmlns:xlink="http://www.w3.org/1999/xlink" x="0" y="0" width="30" height="30" viewBox="0, 0, 30, 30">
  <g id="Layer_1">
    <path d="M25.501,11.066 C25.165,8.21 24.033,7.817 21.78,7.664 C18.577,7.446 11.426,7.445 8.22,7.664 C5.967,7.817 4.835,8.21 4.499,11.066 C4.25,13.187 4.249,16.806 4.499,18.934 C4.835,21.79 5.967,22.183 8.22,22.337 C11.426,22.555 18.577,22.554 21.78,22.337 C24.033,22.183 25.165,21.79 25.501,18.934 C25.75,16.813 25.751,13.194 25.501,11.066 z M12.871,17.985 L12.871,12.022 L18.589,15.003 L12.871,17.985 z" fill="#000000" id="youtube-new-icon"/>
  </g>
</svg>
