<?xml version="1.0" encoding="UTF-8"?>
<!DOCTYPE svg PUBLIC "-//W3C//DTD SVG 1.1//EN" "http://www.w3.org/Graphics/SVG/1.1/DTD/svg11.dtd">
<svg version="1.1" xmlns="http://www.w3.org/2000/svg" xmlns:xlink="http://www.w3.org/1999/xlink" x="0" y="0" width="100" height="100" viewBox="0, 0, 100, 100">
  <g id="Layer_1">
    <path d="M13.003,7.058 C13.004,5.498 12.393,4.034 11.292,2.929 C10.189,1.829 8.72,1.221 7.171,1.227 C3.956,1.221 1.338,3.833 1.329,7.052 L1.329,7.066 C1.338,10.275 3.957,12.89 7.17,12.895 C10.385,12.891 13.004,10.272 13.003,7.058 M86.239,92.209 C86.239,88.992 88.859,86.374 92.075,86.38 C93.624,86.376 95.09,86.984 96.194,88.085 C97.298,89.188 97.907,90.655 97.907,92.214 C97.907,95.423 95.293,98.045 92.082,98.053 C88.854,98.044 86.24,95.426 86.237,92.221 L86.239,92.209 M96.368,10.082 L10.258,96.478 C8.228,98.501 4.941,98.497 2.92,96.483 C1.939,95.503 1.395,94.199 1.395,92.81 C1.395,91.426 1.939,90.122 2.917,89.146 L89.021,2.753 C91.047,0.73 94.338,0.728 96.357,2.74 C98.325,4.704 98.331,8.121 96.368,10.082 z M68.618,9.727 L9.88,68.271 C8.898,69.252 7.592,69.786 6.2,69.788 C4.815,69.783 3.513,69.236 2.54,68.251 C1.574,67.289 1.029,65.984 1.029,64.598 C1.029,63.203 1.574,61.899 2.562,60.917 L61.296,2.375 C63.324,0.356 66.617,0.361 68.635,2.385 C70.591,4.36 70.58,7.777 68.618,9.727 z M41.062,8.856 L9.02,40.876 C6.995,42.897 3.704,42.893 1.684,40.872 C0.703,39.889 0.164,38.587 0.164,37.204 C0.164,35.817 0.709,34.51 1.688,33.533 L33.733,1.515 C35.757,-0.508 39.045,-0.504 41.065,1.521 C43.031,3.489 43.023,6.901 41.062,8.856 z M97.66,37.418 L37.006,97.794 C34.973,99.809 31.682,99.798 29.666,97.775 C28.691,96.793 28.153,95.498 28.154,94.112 C28.154,92.728 28.698,91.424 29.68,90.44 L90.342,30.062 C92.364,28.049 95.655,28.055 97.673,30.079 C99.634,32.05 99.618,35.462 97.66,37.418 z M57.555,91.164 L91.013,57.478 C91.986,56.496 93.289,55.95 94.677,55.945 C96.064,55.942 97.366,56.475 98.349,57.453 C100.323,59.404 100.33,62.818 98.378,64.788 L64.922,98.471 C63.945,99.453 62.644,99.994 61.26,100 C59.873,100.006 58.573,99.47 57.588,98.492 C56.597,97.508 56.056,96.202 56.056,94.808 C56.054,93.439 56.587,92.145 57.555,91.164 z" fill="#000000"/>
  </g>
</svg>
